<svg width="485" height="370" viewBox="0 0 485 370" fill="none" xmlns="http://www.w3.org/2000/svg">
    <path opacity="0.03" d="M393.538 205.502L472.426 116.912C474.655 114.408 478.797 115.985 478.797 119.338V169.852C478.797 170.786 478.438 171.685 477.795 172.363L419.526 233.769L393.538 205.502ZM396.274 239.696L378.345 220.572C376.932 219.065 374.549 219.032 373.094 220.5L327.802 266.204C326.537 267.48 326.389 269.486 327.454 270.933L341.295 289.743C342.462 291.326 344.674 291.701 346.296 290.589L359.344 281.642L396.274 239.696ZM311.471 284.377L328.256 303.56C329.568 305.059 329.434 307.333 327.956 308.668L318.953 316.8C317.555 318.062 315.438 318.043 313.95 316.889C303.749 308.983 285.38 302.261 269.982 317.66L311.471 284.377ZM156 283.465H181.988C184.002 283.465 185.635 281.832 185.635 279.818V260.629C185.635 259.504 185.116 258.441 184.227 257.75L161.015 239.696L156 283.465ZM221.654 181.793L237.375 199.087C238.754 200.604 238.612 202.959 237.061 204.3L205.775 231.336C204.23 232.672 201.889 232.478 200.584 230.907L182.9 209.605L221.654 181.793ZM482.444 233.769L453.091 271.755C452.111 273.024 452.074 274.784 453.001 276.094L482.444 317.66V233.769ZM479.253 360.061C479.253 360.061 465.732 338.514 444.387 321.042C442.962 319.876 440.895 320.014 439.537 321.257C416.761 342.084 390.497 338.653 378.071 331.84C376.659 331.066 374.899 331.12 373.645 332.132L330.62 366.9L479.253 360.061ZM381.228 40L391.233 52.9689C392.493 54.6025 394.857 54.8664 396.446 53.5509L405.748 45.8527C406.403 45.3114 407.224 45.0152 408.074 45.0152H479.253L381.228 40ZM225.463 280.108L227.258 298.411C227.441 300.278 229.011 301.702 230.888 301.702H261.702C262.628 301.702 263.519 301.35 264.194 300.718L296.101 270.857C297.549 269.502 297.649 267.239 296.327 265.762L270.341 236.719C268.92 235.131 266.445 235.094 264.978 236.641L226.448 277.242C225.72 278.009 225.36 279.056 225.463 280.108ZM282.991 220.462L313.909 252.946C315.322 254.43 317.681 254.459 319.13 253.01L364.026 208.114C365.463 206.677 365.449 204.342 363.993 202.923L333.128 172.839C331.726 171.474 329.498 171.457 328.076 172.801L283.127 215.298C281.66 216.685 281.599 219 282.991 220.462ZM464.699 96.535H410.892C409.993 96.535 409.125 96.8667 408.456 97.4667L346.345 153.153C344.753 154.58 344.724 157.063 346.282 158.527L378.614 188.91C380.065 190.275 382.341 190.223 383.728 188.794L467.315 102.723C469.561 100.411 467.923 96.535 464.699 96.535Z" stroke="white" stroke-width="4" />
    <path opacity="0.03" d="M90.9051 164.398L12.0178 252.988C9.78834 255.492 5.6467 253.915 5.6467 250.562V200.048C5.6467 199.113 6.00508 198.215 6.64793 197.537L64.9173 136.131L90.9051 164.398ZM88.1696 130.204L106.098 149.328C107.512 150.835 109.895 150.868 111.35 149.4L156.642 103.696C157.906 102.42 158.054 100.414 156.989 98.9671L143.148 80.1574C141.982 78.5735 139.77 78.1987 138.147 79.3112L125.1 88.2583L88.1696 130.204ZM172.972 85.5228L156.188 66.3401C154.875 64.841 155.009 62.5668 156.488 61.2318L165.49 53.0999C166.888 51.8379 169.006 51.8571 170.494 53.0106C180.695 60.9173 199.063 67.6385 214.461 52.24L172.972 85.5228ZM328.443 86.4346H302.455C300.441 86.4346 298.808 88.0677 298.808 90.082V109.271C298.808 110.396 299.328 111.459 300.216 112.15L323.428 130.204L328.443 86.4346ZM262.79 188.106L247.069 170.813C245.69 169.296 245.831 166.94 247.382 165.6L278.668 138.564C280.214 137.228 282.554 137.422 283.859 138.993L301.544 160.295L262.79 188.106ZM1.99928 136.131L31.3519 98.1447C32.3321 96.8763 32.3695 95.1155 31.4422 93.8061L1.99928 52.24V136.131ZM5.19077 9.83878C5.19077 9.83878 18.7109 31.3859 40.0565 48.858C41.4817 50.0242 43.5479 49.8856 44.9066 48.6428C67.682 27.816 93.9462 31.2464 106.372 38.0598C107.785 38.834 109.544 38.7801 110.798 37.768L153.823 2.99987L5.19077 9.83878ZM103.215 329.9L93.2103 316.931C91.9501 315.297 89.5866 315.033 87.9973 316.349L78.6954 324.047C78.0407 324.589 77.2191 324.885 76.3693 324.885L5.19077 324.885L103.215 329.9ZM258.98 89.7921L257.186 71.4893C257.002 69.6218 255.432 68.1975 253.555 68.1975H222.741C221.816 68.1975 220.925 68.5495 220.249 69.1823L188.342 99.0428C186.894 100.398 186.794 102.661 188.116 104.138L214.102 133.181C215.523 134.769 217.999 134.806 219.466 133.259L257.995 92.658C258.724 91.8912 259.083 90.8443 258.98 89.7921ZM201.452 149.437L170.535 116.954C169.121 115.47 166.762 115.441 165.313 116.89L120.417 161.786C118.98 163.223 118.995 165.558 120.45 166.977L151.316 197.061C152.717 198.426 154.946 198.443 156.367 197.099L201.316 154.602C202.783 153.215 202.844 150.9 201.452 149.437ZM19.744 273.365H73.5516C74.4507 273.365 75.3179 273.033 75.9872 272.433L138.098 216.747C139.69 215.32 139.719 212.837 138.161 211.373L105.829 180.989C104.379 179.625 102.103 179.677 100.716 181.106L17.1279 267.176C14.882 269.489 16.5206 273.365 19.744 273.365Z" stroke="white" stroke-width="4" />
</svg>
    